<?xml version="1.0" encoding="UTF-8"?>
<svg width="752pt" height="752pt" version="1.1" viewBox="0 0 752 752" xmlns="http://www.w3.org/2000/svg">
 <g>
  <path d="m326.52 191.73c0 0.55469-0.44922 1.0039-1.0078 1.0039-0.55469 0-1.0039-0.44922-1.0039-1.0039v-12.078c0-0.55469 0.44922-1.0039 1.0039-1.0039 0.55859 0 1.0078 0.44922 1.0078 1.0039z"/>
  <path d="m445.9 191.73c0 0.55469-0.45313 1.0039-1.0078 1.0039-0.55859 0-1.0039-0.44922-1.0039-1.0039v-12.078c0-0.55469 0.44531-1.0039 1.0039-1.0039 0.55469 0 1.0078 0.44922 1.0078 1.0039z"/>
  <path d="m384.96 246.43c0 0.28125-0.44531 0.50391-1.0039 0.50391-0.55469 0-1.0039-0.22266-1.0039-0.50391v-6.0391c0-0.27344 0.44922-0.50391 1.0039-0.50391 0.55859 0 1.0039 0.22656 1.0039 0.50391z"/>
  <path d="m502.33 314.64v-2.1797c0-2.9375-1.3359-5.5586-3.4336-7.3008 1.0664-1.5312 1.6875-3.3867 1.6875-5.3984v-136.85c0.003907-5.2422-4.2539-9.4961-9.4922-9.4961h-214.27c-5.2422 0-9.4961 4.2539-9.4961 9.4961v136.85c0 2.0078 0.62109 3.8711 1.6875 5.3984-2.0938 1.7422-3.4297 4.3672-3.4297 7.3008v2.2031c-1.8164 0.11328-3.2344 1.1133-3.2344 2.3438v31.652c0 1.2305 1.4219 2.2344 3.2344 2.3555v239.57c0 5.2422 4.2539 9.4922 9.5 9.4922h217.75c5.2383 0 9.5-4.2422 9.5-9.4922l-0.003906-239.54c1.9844 0 3.5938-1.0664 3.5938-2.3789v-31.652c0-1.3125-1.6094-2.3711-3.5938-2.3711zm-57.543-137.76c18.883 0 34.203 15.312 34.203 34.207 0 18.887-15.316 34.203-34.203 34.203-18.891 0-34.211-15.316-34.211-34.203 0.003906-18.895 15.32-34.207 34.211-34.207zm-60.832 3.1641c2.0781 0 3.7695 1.6914 3.7695 3.7695s-1.6875 3.7656-3.7695 3.7656c-2.0742 0-3.7695-1.6875-3.7695-3.7656s1.6914-3.7695 3.7695-3.7695zm0 57.84c12.598 0 22.805 10.207 22.805 22.805s-10.207 22.805-22.805 22.805c-12.594 0-22.797-10.207-22.797-22.805s10.203-22.805 22.797-22.805zm-58.137-61.004c18.891 0 34.207 15.312 34.207 34.207 0 18.887-15.312 34.203-34.207 34.203-18.887 0-34.203-15.316-34.203-34.203 0-18.895 15.316-34.207 34.203-34.207zm167.79 390.65c0 5.2422-4.2578 9.5-9.5 9.5h-200.31c-5.2422 0-9.4961-4.2539-9.4961-9.5v-122.52c0-5.2422 4.2539-9.4922 9.4961-9.4922h200.32c5.2383 0 9.5 4.2422 9.5 9.4922z"/>
 </g>
</svg>
